<?xml version="1.0" encoding="UTF-8"?><svg xmlns="http://www.w3.org/2000/svg" viewBox="0 0 197.12 16.11"><defs><style>.i{fill:#fff;}.j{opacity:.5;}</style></defs><g id="a"/><g id="b"><g id="c"><g id="d" class="j"><g id="e"><g id="f"><path class="i" d="M110.09,3.44c-.58-.26-1.25-.39-2.01-.39h-3.28V13.01h1.3v-3.8h1.98c.76,0,1.44-.13,2.01-.39,.58-.26,1.03-.63,1.35-1.09,.32-.47,.48-1.01,.48-1.62s-.16-1.14-.48-1.6c-.32-.45-.77-.81-1.35-1.07Zm-.24,4.25c-.47,.36-1.14,.54-2.01,.54h-1.74V4.03h1.74c.86,0,1.53,.18,2,.55,.47,.37,.71,.89,.71,1.56s-.23,1.19-.7,1.55Z"/><rect class="i" x="115.76" y="3.05" width="1.34" height="9.96"/><path class="i" d="M131.87,4.34c-.53-.47-1.15-.84-1.85-1.1-.7-.26-1.46-.39-2.29-.39s-1.57,.13-2.27,.4c-.7,.27-1.32,.64-1.85,1.11-.53,.47-.95,1.02-1.24,1.65-.3,.63-.45,1.31-.45,2.03s.15,1.41,.44,2.04c.29,.63,.7,1.18,1.24,1.65,.53,.47,1.15,.84,1.85,1.1,.7,.26,1.46,.39,2.28,.39s1.57-.13,2.27-.4c.7-.27,1.32-.64,1.85-1.11,.53-.47,.95-1.02,1.24-1.65,.3-.63,.45-1.31,.45-2.03s-.15-1.41-.44-2.04c-.29-.63-.7-1.18-1.24-1.65Zm-.3,5.82c-.38,.62-.9,1.11-1.56,1.46-.66,.35-1.42,.53-2.27,.53s-1.6-.18-2.26-.53-1.19-.84-1.56-1.46c-.38-.62-.57-1.33-.57-2.12s.19-1.5,.57-2.12c.38-.62,.9-1.11,1.56-1.46s1.42-.53,2.26-.53,1.61,.18,2.27,.53c.66,.35,1.18,.84,1.56,1.46,.38,.62,.57,1.33,.57,2.12s-.19,1.5-.57,2.12Z"/><polygon class="i" points="146.82 11.32 139.67 3.05 138.38 3.05 138.38 13.01 139.61 13.01 139.61 4.74 146.76 13.01 148.06 13.01 148.06 3.05 146.82 3.05 146.82 11.32"/><rect class="i" x="153.39" y="3.05" width="1.34" height="9.96"/><polygon class="i" points="161.4 8.4 166.44 8.4 166.44 7.39 161.4 7.39 161.4 4.06 167.03 4.06 167.03 3.05 160.06 3.05 160.06 13.01 167.26 13.01 167.26 12 161.4 12 161.4 8.4"/><path class="i" d="M178.62,7.73c.39-.46,.59-1.02,.59-1.68,0-.6-.16-1.13-.48-1.58-.32-.45-.77-.8-1.35-1.05-.58-.25-1.26-.37-2.05-.37h-3.23V13.01h1.3v-3.97h1.89c.17,0,.33,0,.49-.01l2.98,3.98h1.59l-3.26-4.26c.63-.22,1.15-.56,1.54-1.02Zm-3.6,.33h-1.64V4.03h1.76c.87,0,1.54,.17,2,.52,.46,.35,.69,.84,.69,1.5,0,1.34-.94,2-2.82,2Z"/><rect class="i" x="184" y="3.05" width="7.2" height="1.01"/><rect class="i" x="184" y="12" width="7.2" height="1.01"/><rect class="i" x="184" y="7.52" width="7.2" height="1.01"/></g><polygon id="g" class="i" points="195.94 0 195.94 0 100.06 0 100.06 1.17 195.94 1.17 195.94 14.94 100.06 14.94 100.06 16.11 197.12 16.11 197.12 16.11 197.12 14.94 197.12 1.17 197.12 0 197.12 0 195.94 0"/></g><g id="h"><path class="i" d="M22.29,4.45c-.66-.35-1.42-.53-2.27-.53s-1.6,.18-2.26,.53c-.67,.35-1.19,.84-1.56,1.46-.38,.62-.57,1.33-.57,2.12s.19,1.5,.57,2.12c.38,.62,.9,1.11,1.56,1.46,.67,.35,1.42,.53,2.26,.53s1.61-.18,2.27-.53c.66-.35,1.18-.84,1.56-1.46,.38-.62,.57-1.33,.57-2.12s-.19-1.5-.57-2.12c-.38-.62-.9-1.11-1.56-1.46Z"/><path class="i" d="M80.46,6.05c0-.66-.23-1.15-.69-1.5-.46-.34-1.13-.52-2-.52h-1.76v4.02h1.64c1.88,0,2.82-.67,2.82-2Z"/><path class="i" d="M0,0V16.11H97.06V0H0ZM11.7,11.86c-.33,.43-.79,.77-1.39,1-.6,.24-1.31,.35-2.13,.35-.43,0-.86-.04-1.31-.1-.45-.07-.87-.16-1.27-.28-.4-.12-.74-.26-1.02-.41l.16-1.09c.48,.25,1.02,.46,1.64,.62,.62,.16,1.2,.24,1.74,.24,.83,0,1.5-.16,1.98-.47,.49-.31,.73-.74,.73-1.28,0-.31-.08-.58-.23-.8-.15-.22-.42-.42-.81-.6-.39-.18-.93-.38-1.62-.58-.84-.24-1.51-.5-2.01-.76-.5-.26-.85-.56-1.06-.9-.21-.34-.31-.75-.31-1.23,0-.55,.16-1.03,.47-1.43,.31-.41,.75-.72,1.3-.94,.56-.22,1.21-.33,1.95-.33,.55,0,1.1,.06,1.67,.19,.57,.13,1.07,.3,1.52,.53l-.22,1.04c-.44-.23-.92-.4-1.45-.53-.53-.13-1.03-.19-1.52-.19-.75,0-1.35,.14-1.77,.43-.43,.28-.64,.67-.64,1.17,0,.3,.07,.55,.21,.75,.14,.21,.39,.39,.74,.56,.35,.17,.84,.35,1.47,.54,.91,.27,1.64,.55,2.18,.83,.54,.28,.92,.59,1.15,.94,.23,.35,.35,.76,.35,1.23,0,.59-.16,1.09-.49,1.53Zm13.68-1.8c-.3,.63-.71,1.18-1.24,1.65-.53,.47-1.15,.84-1.85,1.11-.7,.27-1.46,.4-2.27,.4s-1.57-.13-2.28-.39c-.71-.26-1.32-.63-1.86-1.1s-.94-1.02-1.24-1.65c-.29-.63-.44-1.31-.44-2.04s.15-1.4,.45-2.03c.3-.63,.71-1.18,1.24-1.65,.53-.47,1.15-.84,1.85-1.11,.7-.27,1.46-.4,2.27-.4s1.59,.13,2.29,.39c.7,.26,1.32,.63,1.85,1.1,.53,.47,.94,1.02,1.24,1.65,.29,.63,.44,1.31,.44,2.04s-.15,1.4-.45,2.03Zm9.57-6h-5.39v3.51h4.65v1.01h-4.65v4.43h-1.34V3.05h6.74v1.01Zm10.55,0h-3.87V13.01h-1.34V4.06h-3.87v-1.01h9.09v1.01Zm12.1,8.95l-2.91-8.48-2.86,8.48h-1.49l-3.46-9.96h1.39l2.86,8.71,2.91-8.58h1.4l2.89,8.52,2.86-8.65h1.33l-3.46,9.96h-1.46Zm13.74,0l-3.93-8.82-3.93,8.82h-1.37l4.6-9.96h1.48l4.61,9.96h-1.45Zm10.04,0l-2.98-3.98c-.16,0-.32,.01-.49,.01h-1.89v3.97h-1.3V3.05h3.23c.78,0,1.47,.12,2.05,.37,.58,.25,1.03,.6,1.36,1.05,.32,.45,.48,.98,.48,1.58,0,.66-.2,1.21-.59,1.68-.39,.46-.91,.8-1.54,1.02l3.26,4.26h-1.59Zm10.87,0h-7.12v-1.01h7.12v1.01Zm0-4.47h-7.12v-1.01h7.12v1.01Zm0-4.47h-7.12v-1.01h7.12v1.01Z"/></g></g></g></g></svg>